<svg width="342" height="342" viewBox="0 0 342 342" fill="none" xmlns="http://www.w3.org/2000/svg">
<rect width="342" height="342" stroke="#2054FF"/>
<path d="M287.85 85.5001L42.7499 156.75L29.9249 122.55C25.6499 106.875 34.1999 91.2001 48.4499 86.9251L240.825 29.9251C256.5 25.6501 272.175 34.2001 276.45 48.4501L287.85 85.5001Z" stroke="#2054FF" stroke-width="10" stroke-linecap="round" stroke-linejoin="round"/>
<path d="M88.35 75.5249L132.525 131.1" stroke="#2054FF" stroke-width="10" stroke-linecap="round" stroke-linejoin="round"/>
<path d="M176.7 48.4502L220.875 105.45" stroke="#2054FF" stroke-width="10" stroke-linecap="round" stroke-linejoin="round"/>
<path d="M42.75 156.75H299.25V270.75C299.25 278.309 296.247 285.558 290.903 290.903C285.558 296.247 278.309 299.25 270.75 299.25H71.25C63.6913 299.25 56.4422 296.247 51.0975 290.903C45.7527 285.558 42.75 278.309 42.75 270.75V156.75Z" stroke="#2054FF" stroke-width="10" stroke-linecap="round" stroke-linejoin="round"/>
<path d="M97.5682 204.818L111.631 249.023H112.17L126.261 204.818H139.898L119.841 263H103.989L83.9034 204.818H97.5682ZM161.638 263.852C157.149 263.852 153.286 262.943 150.047 261.125C146.827 259.288 144.346 256.693 142.604 253.341C140.861 249.97 139.99 245.983 139.99 241.381C139.99 236.892 140.861 232.953 142.604 229.562C144.346 226.172 146.799 223.53 149.962 221.636C153.143 219.742 156.875 218.795 161.155 218.795C164.034 218.795 166.714 219.259 169.195 220.188C171.695 221.097 173.873 222.47 175.729 224.307C177.604 226.144 179.062 228.455 180.104 231.239C181.145 234.004 181.666 237.242 181.666 240.955V244.278H144.82V236.778H170.274C170.274 235.036 169.895 233.492 169.138 232.148C168.38 230.803 167.329 229.752 165.984 228.994C164.659 228.218 163.115 227.83 161.354 227.83C159.517 227.83 157.888 228.256 156.467 229.108C155.066 229.941 153.967 231.068 153.172 232.489C152.376 233.89 151.969 235.453 151.95 237.176V244.307C151.95 246.466 152.348 248.331 153.143 249.903C153.958 251.475 155.104 252.688 156.581 253.54C158.058 254.392 159.81 254.818 161.837 254.818C163.181 254.818 164.412 254.629 165.53 254.25C166.647 253.871 167.604 253.303 168.399 252.545C169.195 251.788 169.801 250.86 170.217 249.761L181.411 250.5C180.842 253.189 179.678 255.538 177.916 257.545C176.174 259.534 173.92 261.087 171.155 262.205C168.409 263.303 165.236 263.852 161.638 263.852ZM201.666 204.818V263H189.564V204.818H201.666ZM231.077 263.852C226.664 263.852 222.848 262.915 219.628 261.04C216.427 259.146 213.955 256.513 212.213 253.142C210.471 249.752 209.599 245.822 209.599 241.352C209.599 236.845 210.471 232.905 212.213 229.534C213.955 226.144 216.427 223.511 219.628 221.636C222.848 219.742 226.664 218.795 231.077 218.795C235.49 218.795 239.296 219.742 242.497 221.636C245.717 223.511 248.198 226.144 249.94 229.534C251.683 232.905 252.554 236.845 252.554 241.352C252.554 245.822 251.683 249.752 249.94 253.142C248.198 256.513 245.717 259.146 242.497 261.04C239.296 262.915 235.49 263.852 231.077 263.852ZM231.134 254.477C233.141 254.477 234.817 253.909 236.162 252.773C237.507 251.617 238.52 250.045 239.202 248.057C239.902 246.068 240.253 243.805 240.253 241.267C240.253 238.729 239.902 236.466 239.202 234.477C238.52 232.489 237.507 230.917 236.162 229.761C234.817 228.606 233.141 228.028 231.134 228.028C229.107 228.028 227.402 228.606 226.02 229.761C224.656 230.917 223.624 232.489 222.923 234.477C222.241 236.466 221.901 238.729 221.901 241.267C221.901 243.805 222.241 246.068 222.923 248.057C223.624 250.045 224.656 251.617 226.02 252.773C227.402 253.909 229.107 254.477 231.134 254.477Z" fill="#2054FF"/>
</svg>
